<svg xmlns="http://www.w3.org/2000/svg" viewBox="0 0 48 48" width="48" height="48">
  <defs>
    <linearGradient id="suvGrad" x1="0" y1="0" x2="0" y2="1">
      <stop offset="0" stop-color="#3F9D6E"></stop>
      <stop offset="1" stop-color="#256B47"></stop>
    </linearGradient>
  </defs>
  <ellipse cx="24" cy="39" rx="13" ry="3.4" fill="#000000" opacity="0.26"></ellipse>

  
  <rect x="10" y="12.5" width="4" height="8.5" rx="1.6" fill="#1C2320"></rect>
  <rect x="34" y="12.5" width="4" height="8.5" rx="1.6" fill="#1C2320"></rect>
  <rect x="10" y="27.5" width="4" height="8.5" rx="1.6" fill="#1C2320"></rect>
  <rect x="34" y="27.5" width="4" height="8.5" rx="1.6" fill="#1C2320"></rect>

  
  <path d="M17,7.5 L31,7.5 C33.5,7.5 34.8,9 34.8,11.5 L34.8,34.5 C34.8,37 33.5,38.5 31,38.5 L17,38.5&#xA;           C14.5,38.5 13.2,37 13.2,34.5 L13.2,11.5 C13.2,9 14.5,7.5 17,7.5 Z" fill="url(#suvGrad)" stroke="#173D28" stroke-width="1.5" stroke-linejoin="round"></path>

  
  <rect x="16.5" y="11" width="15" height="6.2" rx="1.8" fill="#1D2622"></rect>
  
  <rect x="16.5" y="31.5" width="15" height="5.2" rx="1.8" fill="#1D2622"></rect>

  
  <line x1="17" y1="20" x2="31" y2="20" stroke="#173D28" stroke-width="1.6" stroke-linecap="round" opacity="0.85"></line>
  <line x1="17" y1="24.3" x2="31" y2="24.3" stroke="#173D28" stroke-width="1.6" stroke-linecap="round" opacity="0.85"></line>
  <line x1="17" y1="28.6" x2="31" y2="28.6" stroke="#173D28" stroke-width="1.6" stroke-linecap="round" opacity="0.85"></line>
</svg>